<svg width="288" height="84" viewBox="0 0 288 84" fill="none" xmlns="http://www.w3.org/2000/svg">
    <path d="M275.173 1.65527H12.4394C6.02365 1.65527 0.822632 5.98946 0.822632 11.336V72.6469C0.822632 77.9934 6.02365 82.3275 12.4394 82.3275H275.173C281.589 82.3275 286.79 77.9934 286.79 72.6469V11.336C286.79 5.98946 281.589 1.65527 275.173 1.65527Z" fill="black"/>
    <path fill-rule="evenodd" clip-rule="evenodd" d="M63.4257 40.1457C63.3635 34.3752 69.0957 31.5679 69.3578 31.4372C66.1114 27.4927 61.0796 26.9538 59.3114 26.9108C55.0853 26.5402 50.9858 29.0182 48.8331 29.0182C46.6373 29.0182 43.3221 26.9467 39.7492 27.0077C35.1514 27.0665 30.85 29.285 28.4908 32.7297C23.6224 39.7537 27.2534 50.0755 31.9178 55.7528C34.2511 58.5352 36.9776 61.638 40.5462 61.5287C44.0375 61.4105 45.3417 59.6739 49.555 59.6739C53.7296 59.6739 54.9542 61.5287 58.5938 61.4571C62.3408 61.4105 64.6999 58.6659 66.9514 55.8585C69.6477 52.6751 70.7308 49.533 70.7736 49.3718C70.6877 49.3484 63.4988 47.0622 63.4257 40.1457Z" fill="white"/>
    <path fill-rule="evenodd" clip-rule="evenodd" d="M56.5507 23.1756C58.4285 21.2187 59.7133 18.5562 59.3566 15.8545C56.6388 15.9547 53.2399 17.4211 51.2824 19.3351C49.5508 21.0217 48.0038 23.7861 48.4034 26.3858C51.4565 26.5755 54.5913 25.1021 56.5507 23.1756Z" fill="white"/>
    <path fill-rule="evenodd" clip-rule="evenodd" d="M113.996 61.1297H109.116L106.443 54.131H97.1534L94.6074 61.1297H89.8571L99.0634 37.3027H104.748L113.996 61.1297ZM105.638 51.1945L103.221 44.9747C102.965 44.3374 102.484 42.8405 101.779 40.4842H101.693C101.409 41.4977 100.956 42.9944 100.335 44.9747L97.9591 51.1945H105.638Z" fill="white"/>
    <path fill-rule="evenodd" clip-rule="evenodd" d="M137.625 52.3275C137.625 55.2495 136.673 57.5591 134.767 59.2547C133.061 60.764 130.941 61.5177 128.412 61.5177C125.681 61.5177 123.718 60.7066 122.525 59.0792V68.0939H117.944V49.5952C117.944 47.7601 117.886 45.8784 117.775 43.9483H121.803L122.059 46.6732H122.145C123.672 44.6197 125.991 43.5938 129.102 43.5938C131.534 43.5938 133.564 44.394 135.188 45.9966C136.81 47.6026 137.625 49.7115 137.625 52.3275ZM132.958 52.4671C132.958 50.7948 132.507 49.4163 131.6 48.3312C130.61 47.2014 129.28 46.6339 127.613 46.6339C126.483 46.6339 125.456 46.9489 124.538 47.5721C123.619 48.1969 123.017 49.0151 122.736 50.0304C122.594 50.5011 122.523 50.8861 122.523 51.1905V54.0588C122.523 55.3049 122.983 56.3595 123.902 57.2225C124.822 58.0819 126.016 58.5133 127.486 58.5133C129.211 58.5133 130.554 57.9566 131.514 56.8518C132.477 55.7436 132.958 54.2826 132.958 52.4671Z" fill="white"/>
    <path fill-rule="evenodd" clip-rule="evenodd" d="M161.338 52.3275C161.338 55.2495 160.386 57.5591 158.48 59.2547C156.772 60.764 154.654 61.5177 152.123 61.5177C149.394 61.5177 147.43 60.7066 146.236 59.0792V68.0939H141.655V49.5952C141.655 47.7601 141.597 45.8784 141.486 43.9483H145.514L145.77 46.6732H145.856C147.381 44.6197 149.699 43.5938 152.812 43.5938C155.242 43.5938 157.275 44.394 158.901 45.9966C160.521 47.6026 161.338 49.7115 161.338 52.3275ZM156.669 52.4671C156.669 50.7948 156.216 49.4163 155.309 48.3312C154.321 47.2014 152.993 46.6339 151.326 46.6339C150.195 46.6339 149.169 46.9489 148.247 47.5721C147.33 48.1969 146.728 49.0151 146.446 50.0304C146.307 50.5011 146.231 50.8861 146.231 51.1905V54.0588C146.231 55.3049 146.693 56.3595 147.609 57.2225C148.528 58.0801 149.723 58.5133 151.197 58.5133C152.924 58.5133 154.267 57.9566 155.225 56.8518C156.188 55.7436 156.669 54.2826 156.669 52.4671Z" fill="white"/>
    <path fill-rule="evenodd" clip-rule="evenodd" d="M187.851 54.447C187.851 56.4739 187.002 58.1229 185.309 59.3959C183.448 60.7853 180.851 61.4817 177.521 61.4817C174.444 61.4817 171.977 60.9875 170.117 59.9975L171.176 56.8158C173.185 57.806 175.391 58.302 177.793 58.302C179.521 58.302 180.864 57.976 181.822 57.3297C182.784 56.6798 183.268 55.815 183.268 54.7336C183.268 53.765 182.868 52.9522 182.078 52.2915C181.285 51.6344 179.974 51.0185 178.135 50.4562C173.129 48.9004 170.624 46.623 170.624 43.6311C170.624 41.676 171.509 40.0753 173.273 38.8238C175.039 37.574 177.381 36.9492 180.294 36.9492C182.896 36.9492 185.064 37.327 186.785 38.0808L185.635 41.1926C184.016 40.4621 182.187 40.0968 180.142 40.0968C178.526 40.0968 177.256 40.428 176.352 41.0869C175.589 41.676 175.2 42.394 175.2 43.2461C175.2 44.1861 175.641 44.9668 176.519 45.5773C177.28 46.143 178.668 46.7571 180.675 47.416C183.137 48.2433 184.944 49.2066 186.104 50.313C187.271 51.4194 187.851 52.7999 187.851 54.447Z" fill="white"/>
    <path fill-rule="evenodd" clip-rule="evenodd" d="M203.034 46.8123H197.985V55.1538C197.985 57.2755 198.875 58.3337 200.658 58.3337C201.477 58.3337 202.156 58.2764 202.693 58.1564L202.819 61.055C201.917 61.3361 200.729 61.4777 199.259 61.4777C197.448 61.4777 196.036 61.0156 195.014 60.0972C193.996 59.1769 193.486 57.6353 193.486 55.4654V46.805H190.48V43.9403H193.486V40.7945L197.985 39.6631V43.9403H203.034V46.8123Z" fill="white"/>
    <path fill-rule="evenodd" clip-rule="evenodd" d="M225.77 52.3969C225.77 55.0378 224.865 57.206 223.054 58.9016C221.161 60.6453 218.643 61.5174 215.504 61.5174C212.474 61.5174 210.066 60.6812 208.27 59.0089C206.474 57.3367 205.576 55.2275 205.576 52.6833C205.576 50.021 206.506 47.8402 208.354 46.1446C210.206 44.4491 212.702 43.5986 215.841 43.5986C218.869 43.5986 221.296 44.4384 223.138 46.109C224.895 47.7329 225.77 49.8257 225.77 52.3969ZM221.021 52.4847C221.021 50.9108 220.613 49.5609 219.795 48.4311C218.834 47.0667 217.457 46.3865 215.678 46.3865C213.845 46.3865 212.434 47.0667 211.478 48.4311C210.655 49.5609 210.249 50.9342 210.249 52.5563C210.249 54.1318 210.655 55.4853 211.478 56.6097C212.468 57.9758 213.85 58.6579 215.642 58.6579C217.39 58.6579 218.763 57.9597 219.758 56.5776C220.598 55.421 221.021 54.062 221.021 52.4847Z" fill="white"/>
    <path fill-rule="evenodd" clip-rule="evenodd" d="M240.665 47.3053C240.212 47.2355 239.726 47.2014 239.221 47.2014C237.61 47.2014 236.364 47.7046 235.487 48.7215C234.724 49.6167 234.344 50.7484 234.344 52.1144V61.1293H229.764V49.359C229.764 47.3805 229.719 45.5741 229.63 43.9501H233.62L233.788 47.2373H233.914C234.4 46.1075 235.161 45.1961 236.205 44.5158C237.228 43.8999 238.328 43.5938 239.516 43.5938C239.939 43.5938 240.321 43.6206 240.661 43.6635L240.665 47.3053Z" fill="white"/>
    <path fill-rule="evenodd" clip-rule="evenodd" d="M261.151 51.7254C261.151 52.4093 261.098 52.9857 260.984 53.4566H247.244C247.293 55.154 247.961 56.4538 249.236 57.3491C250.393 58.1475 251.894 58.5487 253.731 58.5487C255.766 58.5487 257.622 58.28 259.29 57.7357L260.008 60.3856C258.058 61.0929 255.751 61.4474 253.096 61.4474C249.899 61.4474 247.39 60.6631 245.565 59.0982C243.745 57.5316 242.83 55.4244 242.83 52.7889C242.83 50.1999 243.675 48.0425 245.376 46.3218C247.155 44.4849 249.561 43.5664 252.586 43.5664C255.558 43.5664 257.806 44.4849 259.331 46.3218C260.543 47.7775 261.151 49.5821 261.151 51.7254ZM256.782 50.7351C256.816 49.6019 256.516 48.6278 255.894 47.8007C255.1 46.7372 253.881 46.2072 252.247 46.2072C250.746 46.2072 249.529 46.7247 248.6 47.7632C247.837 48.5885 247.385 49.5821 247.244 50.7317L256.782 50.7351Z" fill="white"/>
    <path fill-rule="evenodd" clip-rule="evenodd" d="M103.429 28.7748H101.029L99.7163 25.3353H95.1506L93.898 28.7748H91.5625L96.0873 17.0635H98.8804L103.429 28.7748ZM99.3208 23.8921L98.1328 20.8341C98.0081 20.5208 97.7782 19.7921 97.4237 18.6283H97.3808C97.2347 19.1314 97.0263 19.8619 96.7126 20.8341L95.5459 23.8921H99.3208Z" fill="white"/>
    <path fill-rule="evenodd" clip-rule="evenodd" d="M114.743 20.3311L110.906 28.7747H108.717L105.004 20.3311H107.423L109.155 24.7963C109.447 25.5429 109.696 26.2555 109.883 26.9323H109.946C110.113 26.3255 110.362 25.6127 110.674 24.7963L112.384 20.3311H114.743Z" fill="white"/>
    <path fill-rule="evenodd" clip-rule="evenodd" d="M122.912 28.7756L122.744 27.8033H122.682C121.994 28.5858 120.993 28.9672 119.721 28.9672C117.908 28.9672 116.614 27.9071 116.614 26.482C116.614 24.3979 118.782 23.3201 122.536 23.3201V23.1644C122.536 22.0525 121.827 21.4957 120.43 21.4957C119.429 21.4957 118.553 21.7052 117.783 22.1223L117.326 20.8887C118.265 20.4017 119.431 20.1582 120.808 20.1582C123.456 20.1582 124.792 21.322 124.792 23.6513V26.7614C124.792 27.6135 124.835 28.2742 124.938 28.7774L122.912 28.7756ZM122.598 24.5699C120.095 24.5699 118.845 25.0747 118.845 26.2725C118.845 27.1589 119.492 27.5921 120.387 27.5921C121.535 27.5921 122.598 26.8634 122.598 25.8732V24.5699Z" fill="white"/>
    <path fill-rule="evenodd" clip-rule="evenodd" d="M129.806 18.9399C129.057 18.9399 128.472 18.4529 128.472 17.8101C128.472 17.1673 129.076 16.6982 129.849 16.6982C130.621 16.6982 131.246 17.1673 131.225 17.8101C131.225 18.4887 130.642 18.9399 129.806 18.9399ZM128.724 20.331H130.975V28.7747H128.724V20.331Z" fill="white"/>
    <path fill-rule="evenodd" clip-rule="evenodd" d="M134.976 16.457H137.227V28.7751H134.976V16.457Z" fill="white"/>
    <path fill-rule="evenodd" clip-rule="evenodd" d="M146.797 28.7744L146.627 27.8023H146.567C145.879 28.5846 144.878 28.966 143.606 28.966C141.793 28.966 140.5 27.9059 140.5 26.4809C140.5 24.3967 142.667 23.3189 146.421 23.3189V23.1632C146.421 22.0514 145.712 21.4945 144.316 21.4945C143.314 21.4945 142.438 21.7041 141.668 22.1211L141.209 20.8858C142.148 20.3988 143.314 20.1553 144.691 20.1553C147.338 20.1553 148.677 21.3191 148.677 23.6485V26.7584C148.677 27.6107 148.72 28.2712 148.819 28.7744H146.797ZM146.483 24.5687C143.98 24.5687 142.73 25.0735 142.73 26.2713C142.73 27.1577 143.376 27.5909 144.272 27.5909C145.42 27.5909 146.483 26.8622 146.483 25.8722V24.5687Z" fill="white"/>
    <path fill-rule="evenodd" clip-rule="evenodd" d="M157.797 28.9667C156.36 28.9667 155.298 28.4619 154.609 27.4717H154.566L154.437 28.7751H152.52C152.58 28.0983 152.602 27.3321 152.602 26.4996V16.457H154.858V21.5669H154.899C155.567 20.6287 156.65 20.1596 158.13 20.1596C160.571 20.1596 162.281 21.8982 162.281 24.4334C162.281 27.0546 160.382 28.9667 157.797 28.9667ZM157.339 21.6332C156.044 21.6332 154.858 22.5714 154.858 23.8747V25.3518C154.858 26.5157 155.924 27.4717 157.298 27.4717C158.985 27.4717 159.991 26.3259 159.991 24.5015C159.988 22.7987 158.944 21.6332 157.339 21.6332Z" fill="white"/>
    <path fill-rule="evenodd" clip-rule="evenodd" d="M165.614 16.457H167.863V28.7751H165.614V16.457Z" fill="white"/>
    <path fill-rule="evenodd" clip-rule="evenodd" d="M180.118 25.0042H173.359C173.404 26.6031 174.672 27.5054 176.547 27.5054C177.551 27.5054 178.468 27.3659 179.28 27.1063L179.63 28.4096C178.672 28.7571 177.546 28.9307 176.233 28.9307C173.062 28.9307 171.187 27.262 171.187 24.6748C171.187 22.0859 173.107 20.1396 175.982 20.1396C178.565 20.1396 180.195 21.7386 180.195 24.1537C180.202 24.4832 180.182 24.7787 180.118 25.0042ZM178.055 23.6668C178.055 22.3634 177.261 21.4431 175.821 21.4431C174.528 21.4431 173.509 22.3813 173.359 23.6668H178.055Z" fill="white"/>
    <path fill-rule="evenodd" clip-rule="evenodd" d="M193.765 28.9672C190.805 28.9672 188.886 27.1248 188.886 24.6236C188.886 22.0166 190.845 20.1582 193.935 20.1582C196.85 20.1582 198.814 21.9128 198.814 24.4856C198.814 27.1248 196.79 28.9672 193.765 28.9672ZM193.851 21.5298C192.225 21.5298 191.183 22.7973 191.183 24.5699C191.183 26.3084 192.246 27.576 193.83 27.576C195.413 27.576 196.477 26.2207 196.477 24.534C196.477 22.8153 195.435 21.5298 193.851 21.5298Z" fill="white"/>
    <path fill-rule="evenodd" clip-rule="evenodd" d="M210.919 28.7744H208.672V23.926C208.672 22.4327 207.982 21.6843 206.626 21.6843C205.292 21.6843 204.372 22.6405 204.372 23.7523V28.7744H202.125V22.7441C202.125 21.9977 202.099 21.1972 202.039 20.3289H204.02L204.125 21.6325H204.19C204.789 20.73 206.022 20.1553 207.4 20.1553C209.522 20.1553 210.919 21.5106 210.919 23.7164V28.7744Z" fill="white"/>
    <path fill-rule="evenodd" clip-rule="evenodd" d="M225.652 21.7386H223.175V25.8386C223.175 26.8825 223.611 27.4034 224.485 27.4034C224.88 27.4034 225.218 27.3677 225.486 27.3157L225.549 28.741C225.11 28.8805 224.524 28.9505 223.8 28.9505C222.023 28.9505 220.966 28.1339 220.966 25.9963V21.7386H219.49V20.3313H220.966V18.7844L223.175 18.2275V20.3295H225.652V21.7386Z" fill="white"/>
    <path fill-rule="evenodd" clip-rule="evenodd" d="M237.576 28.7751H235.322V23.9624C235.322 22.4514 234.632 21.6869 233.279 21.6869C232.112 21.6869 231.029 22.3476 231.029 23.6849V28.7751H228.775V16.457H231.029V21.5294H231.072C231.779 20.609 232.804 20.1561 234.117 20.1561C236.263 20.1561 237.576 21.5455 237.576 23.7531V28.7751Z" fill="white"/>
    <path fill-rule="evenodd" clip-rule="evenodd" d="M249.081 25.0042H242.324C242.368 26.6031 243.633 27.5054 245.511 27.5054C246.518 27.5054 247.433 27.3659 248.241 27.1063L248.592 28.4096C247.636 28.7571 246.509 28.9307 245.194 28.9307C242.026 28.9307 240.15 27.262 240.15 24.6748C240.15 22.0859 242.068 20.1396 244.943 20.1396C247.527 20.1396 249.156 21.7386 249.156 24.1537C249.166 24.4832 249.144 24.7787 249.081 25.0042ZM247.017 23.6668C247.017 22.3634 246.225 21.4431 244.785 21.4431C243.493 21.4431 242.472 22.3813 242.324 23.6668H247.017Z" fill="white"/>
</svg>
