<svg width="287" height="87" viewBox="0 0 287 87" fill="none" xmlns="http://www.w3.org/2000/svg">
    <g clip-path="url(#clip0_187_506)">
        <path d="M273.398 0.110352H11.5765C5.18295 0.110352 0 4.73077 0 10.4304V75.7904C0 81.49 5.18295 86.1104 11.5765 86.1104H273.398C279.791 86.1104 284.974 81.49 284.974 75.7904V10.4304C284.974 4.73077 279.791 0.110352 273.398 0.110352Z" fill="black"/>
        <path fill-rule="evenodd" clip-rule="evenodd" d="M34.7644 41.394C34.7644 41.394 15.1026 31.6827 13.9478 31.1123C12.7911 30.5417 11.6402 30.8878 11.6402 32.0802V52.8116V73.9644C11.6402 74.857 12.4626 75.2443 13.4675 74.7491C14.4704 74.254 34.7644 64.2292 34.7644 64.2292C34.7644 64.2292 37.5213 62.8682 38.8996 62.1877C41.1182 61.0927 45.5549 58.9025 45.5549 58.9025C45.5549 58.9025 54.7104 54.3794 55.9286 53.7795C57.1448 53.1782 57.0276 52.3541 56.0017 51.8796C54.9738 51.4066 45.5549 46.7224 45.5549 46.7224L34.7644 41.394Z" fill="url(#paint0_linear_187_506)"/>
        <mask id="mask0_187_506" style="mask-type:alpha" maskUnits="userSpaceOnUse" x="11" y="30" width="28" height="45">
            <path d="M38.3957 52.7424L12.5416 30.8984C11.9384 31.0234 11.5769 31.4254 11.5769 32.1024V52.7424V73.8984C11.5769 74.4727 11.8366 74.8143 12.1557 74.9304L38.3957 52.7424Z" fill="white"/>
        </mask>
        <g mask="url(#mask0_187_506)">
            <path d="M38.3957 52.7424L12.5416 30.8984C11.9384 31.0234 11.5769 31.4254 11.5769 32.1024V52.7424V73.8984C11.5769 74.4727 11.8366 74.8143 12.1557 74.9304L38.3957 52.7424Z" fill="url(#paint1_linear_187_506)"/>
        </g>
        <mask id="mask1_187_506" style="mask-type:alpha" maskUnits="userSpaceOnUse" x="12" y="52" width="34" height="23">
            <path d="M13.2201 74.8077L28.1638 67.4897C31.8436 65.6719 34.7643 64.2292 34.7643 64.2292L45.6315 59.0112L38.3966 52.7441L12.1569 74.9347C12.4493 75.0186 12.9648 74.9728 13.367 74.7958" fill="white"/>
        </mask>
        <g mask="url(#mask1_187_506)">
            <path fill-rule="evenodd" clip-rule="evenodd" d="M34.7298 41.389C34.6919 41.4667 15.0379 31.7377 13.8922 31.241C12.7274 30.5945 11.5769 30.9413 11.5769 32.101V52.913C11.5769 52.9053 11.5769 73.2009 11.5769 74.069C11.5769 74.9912 12.3989 75.3793 13.3134 74.929C14.406 74.387 34.6919 64.344 34.7298 64.265L45.5345 58.933C45.4783 59.0074 54.6302 54.4759 55.7604 53.945C57.0637 53.2727 56.9467 52.4469 55.9533 52.053C54.8934 51.4977 45.4783 46.8049 45.5345 46.721L34.7298 41.389Z" fill="url(#paint2_linear_187_506)"/>
        </g>
        <mask id="mask2_187_506" style="mask-type:alpha" maskUnits="userSpaceOnUse" x="12" y="30" width="34" height="23">
            <path d="M13.9128 31.0953C13.4151 30.8577 12.9205 30.7898 12.5205 30.8857L38.3961 52.7615L45.5547 46.7224L34.7642 41.394C34.7642 41.394 24.5935 36.3706 18.4526 33.3373L13.9128 31.0953Z" fill="white"/>
        </mask>
        <g mask="url(#mask2_187_506)">
            <path d="M13.9128 31.0953C13.4151 30.8577 12.9205 30.7898 12.5205 30.8857L38.3961 52.7615L45.5547 46.7224L34.7642 41.394C34.7642 41.394 24.5935 36.3706 18.4526 33.3373L13.9128 31.0953Z" fill="url(#paint3_linear_187_506)"/>
        </g>
        <path fill-rule="evenodd" clip-rule="evenodd" d="M195.182 60.1162L193.046 61.9239C192.552 62.1673 192.061 62.4498 191.571 62.6504C190.087 63.2546 188.578 63.4066 187.237 63.4066C185.81 63.4066 183.573 63.3234 181.291 61.8433C178.12 59.8408 176.734 56.3984 176.734 53.3988C176.734 47.1885 182.372 44.1426 186.971 44.1426C188.578 44.1426 190.229 44.5033 191.571 45.2642C193.803 46.5878 194.38 48.3078 194.701 49.2288L184.199 53.0333L180.76 53.273C181.873 58.3653 185.715 61.3269 189.96 61.3269C192.081 61.3269 193.655 60.7062 195.099 60.0663C195.099 60.0663 195.389 59.9309 195.182 60.1162ZM188.766 49.9007C189.609 49.621 190.047 49.3795 190.047 48.818C190.047 47.2072 188.051 45.3466 185.669 45.3466C183.905 45.3466 180.593 46.6013 180.593 50.9583C180.593 51.6381 180.682 52.3625 180.727 53.0866L188.766 49.9007Z" fill="white"/>
        <path fill-rule="evenodd" clip-rule="evenodd" d="M173.266 59.8982C173.266 61.4508 173.575 61.6922 175.038 61.8141C175.801 61.8947 176.561 61.9302 177.313 62.0108L175.666 62.8906H167.82C168.849 61.6922 169.026 61.5727 169.026 60.7746V59.883L169.009 36.1248H165.544L168.879 34.6826H175.247C173.867 35.4001 173.454 35.8372 173.277 37.2355L173.266 59.8982Z" fill="white"/>
        <path fill-rule="evenodd" clip-rule="evenodd" d="M161.092 46.1026C162.113 46.8568 164.243 48.4575 164.243 51.4931C164.243 54.4517 162.387 55.8464 160.515 57.1665C159.941 57.6863 159.269 58.2499 159.269 59.1213C159.269 60.0056 159.941 60.4852 160.424 60.8428L162.03 61.9569C163.982 63.4378 165.762 64.796 165.762 67.5544C165.762 71.3124 161.715 75.1022 154.069 75.1022C147.627 75.1022 144.513 72.3448 144.513 69.3884C144.513 67.95 145.31 65.9122 147.939 64.5165C150.695 63.0022 154.428 62.7997 156.428 62.6814C155.803 61.9569 155.091 61.1979 155.091 59.9595C155.091 59.2823 155.317 58.8785 155.536 58.4025C155.05 58.444 154.56 58.4866 154.115 58.4866C149.4 58.4866 146.735 55.3254 146.735 52.2105C146.735 50.3731 147.668 48.3343 149.583 46.8568C152.118 44.9813 155.139 44.6582 157.541 44.6582H166.701L163.853 46.1026H161.092ZM157.965 63.7936C157.597 63.7502 157.377 63.7502 156.933 63.7502C156.527 63.7502 154.106 63.8298 152.231 64.401C151.239 64.73 148.372 65.7028 148.372 68.5918C148.372 71.4749 151.467 73.5542 156.256 73.5542C160.558 73.5542 162.842 71.6822 162.842 69.162C162.842 67.0877 161.364 65.9933 157.965 63.7936ZM159.222 56.0988C160.245 55.1792 160.334 53.9094 160.334 53.1881C160.334 50.3237 158.436 45.8622 154.757 45.8622C153.609 45.8622 152.366 46.3804 151.661 47.1817C150.911 48.0113 150.687 49.0879 150.687 50.1231C150.687 52.7904 152.416 57.2142 156.218 57.2142C157.328 57.2142 158.521 56.729 159.222 56.0988Z" fill="white"/>
        <path fill-rule="evenodd" clip-rule="evenodd" d="M133.388 63.4066C126.307 63.4066 122.518 58.427 122.518 53.9182C122.518 48.6501 127.281 44.1426 134.056 44.1426C140.605 44.1426 144.706 48.7728 144.706 53.6344C144.706 58.3829 140.652 63.4066 133.388 63.4066ZM138.926 60.1498C140.006 58.8587 140.269 57.247 140.269 55.676C140.269 52.1229 138.393 45.3466 132.85 45.3466C131.375 45.3466 129.89 45.8667 128.82 46.7155C127.074 48.1274 126.763 49.9016 126.763 51.6422C126.763 55.6283 128.946 62.2026 134.363 62.2026C136.112 62.2026 137.896 61.4387 138.926 60.1498Z" fill="white"/>
        <path fill-rule="evenodd" clip-rule="evenodd" d="M109.655 63.4066C102.57 63.4066 98.7859 58.427 98.7859 53.9182C98.7859 48.6501 103.552 44.1426 110.327 44.1426C116.875 44.1426 120.974 48.7728 120.974 53.6344C120.974 58.3829 116.924 63.4066 109.655 63.4066ZM115.195 60.1498C116.269 58.8587 116.537 57.247 116.537 55.676C116.537 52.1229 114.655 45.3466 109.114 45.3466C107.634 45.3466 106.164 45.8667 105.09 46.7155C103.341 48.1274 103.031 49.9016 103.031 51.6422C103.031 55.6283 105.224 62.2026 110.635 62.2026C112.381 62.2026 114.163 61.4387 115.195 60.1498Z" fill="white"/>
        <path fill-rule="evenodd" clip-rule="evenodd" d="M95.8485 62.2161L89.8509 63.4485C87.4206 63.7923 85.2384 64.0943 82.9277 64.0943C71.359 64.0943 66.9507 56.4543 66.9507 50.475C66.9507 43.1727 73.1965 36.4023 83.8929 36.4023C86.1559 36.4023 88.3327 36.7008 90.3162 37.1862C93.4597 37.9783 94.9299 38.9548 95.8485 39.5269L92.3645 42.4959L90.8955 42.7909L91.9429 41.2934C90.5243 40.0505 87.9165 37.756 82.9675 37.756C76.3506 37.756 71.359 42.2688 71.359 48.8573C71.359 55.9334 77.0584 62.5896 86.1998 62.5896C88.8857 62.5896 90.2684 62.1056 91.524 61.6534V55.5872L85.1907 55.893L88.5476 54.2753H97.4355L96.3485 55.2138C96.0554 55.4374 96.0156 55.5135 95.9334 55.8132C95.8897 56.1559 95.8485 57.2453 95.8485 57.6284V62.2161Z" fill="white"/>
        <path fill-rule="evenodd" clip-rule="evenodd" d="M208.127 60.3003V70.4586H205.869V44.6093H208.127V47.5536C209.598 45.6506 212.285 44.1426 215.407 44.1426C221.006 44.1426 224.777 47.9375 224.777 53.9451C224.777 59.9126 221.006 63.7867 215.407 63.7867C212.46 63.7867 209.82 62.4288 208.127 60.3003ZM222.462 54.1001C222.462 49.5245 219.81 46.0346 215.109 46.0346C212.19 46.0346 209.398 48.0984 208.184 49.8983V58.2599C209.398 60.0635 212.19 62.2026 215.109 62.2026C219.81 62.2026 222.462 58.6828 222.462 54.1001Z" fill="white"/>
        <path fill-rule="evenodd" clip-rule="evenodd" d="M227.863 37.4346H230.178V63.4066H227.863V37.4346Z" fill="white"/>
        <path fill-rule="evenodd" clip-rule="evenodd" d="M255.35 68.6697C255.833 68.8624 256.658 68.9806 257.181 68.9806C258.56 68.9806 259.523 68.4758 260.386 66.693L262.033 63.3582L253.139 44.4863H255.657L263.288 60.8403L270.844 44.4863H273.398L262.55 67.3185C261.423 69.671 259.653 70.8023 257.22 70.8023C256.489 70.8023 255.526 70.6864 254.962 70.5316L255.35 68.6697Z" fill="white"/>
        <path fill-rule="evenodd" clip-rule="evenodd" d="M248.978 63.381C248.826 62.7285 248.713 62.1531 248.628 61.673C248.558 61.194 248.52 60.7045 248.52 60.2063C247.741 61.2273 246.639 62.077 245.23 62.7463C243.819 63.4201 242.478 63.7506 240.642 63.7506C238.43 63.7506 236.713 63.2645 235.487 62.278C234.266 61.2927 233.651 59.958 233.651 58.2692C233.651 56.5827 234.542 55.2136 236.316 54.1663C238.091 53.1145 240.384 52.5916 243.224 52.5916H248.52V50.2537C248.52 48.9072 248.006 47.8483 246.981 47.0806C245.951 46.3115 244.507 45.923 242.633 45.923C240.92 45.923 239.531 46.2784 238.474 46.97C237.426 47.6759 236.897 48.5507 236.897 49.6049H234.573L234.525 49.5038C234.442 48.0825 235.169 46.8357 236.716 45.7589C238.257 44.6833 240.275 44.1426 242.758 44.1426C245.235 44.1426 247.239 44.6749 248.749 45.7374C250.256 46.7894 251.014 48.3095 251.014 50.2965V59.5789C251.014 60.2456 251.05 60.8898 251.142 61.5174C251.238 62.146 251.392 62.7736 251.595 63.381H248.978ZM240.916 62.0306C242.843 62.0306 244.227 61.6436 245.643 60.8777C247.049 60.1166 248.006 59.124 248.508 57.9221V54.2906H243.192C241.16 54.2906 239.479 54.6944 238.156 55.509C236.831 56.3215 236.16 57.3047 236.16 58.4478C236.16 59.5267 236.585 60.3891 237.43 61.0427C238.278 61.7031 239.437 62.0306 240.916 62.0306Z" fill="white"/>
        <path fill-rule="evenodd" clip-rule="evenodd" d="M66.187 19.9436C66.187 16.2387 69.5058 13.8555 73.6326 13.8555C76.3984 13.8555 78.2072 14.9501 79.3345 16.2905L77.3142 17.2616C76.5487 16.3787 75.2075 15.6919 73.6326 15.6919C70.8256 15.6919 68.7403 17.4556 68.7403 19.9436C68.7403 22.395 70.8256 24.1952 73.6326 24.1952C75.0799 24.1952 76.356 23.6485 76.9939 23.137V21.3193H72.7395V19.5015H79.4621V23.8953C78.0797 25.184 76.0796 26.0483 73.6326 26.0483C69.5058 26.0483 66.187 23.6319 66.187 19.9436Z" fill="white"/>
        <path fill-rule="evenodd" clip-rule="evenodd" d="M82.6802 25.8693V14.0352H92.5359V15.864H85.2039V18.9142H92.3852V20.742H85.2039V24.0416H92.5359V25.8693H82.6802Z" fill="white"/>
        <path fill-rule="evenodd" clip-rule="evenodd" d="M99.2385 25.8693V15.864H94.9497V14.0352H106.012V15.864H101.723V25.8693H99.2385Z" fill="white"/>
        <path fill-rule="evenodd" clip-rule="evenodd" d="M114.862 14.0352H117.276V25.8693H114.862V14.0352Z" fill="white"/>
        <path fill-rule="evenodd" clip-rule="evenodd" d="M124.181 25.8693V15.864H119.891V14.0352H130.953V15.864H126.665V25.8693H124.181Z" fill="white"/>
        <path fill-rule="evenodd" clip-rule="evenodd" d="M139.199 19.9524C139.199 16.4353 142.235 13.8555 146.542 13.8555C150.824 13.8555 153.882 16.4353 153.882 19.9524C153.882 23.4683 150.824 26.0483 146.542 26.0483C142.235 26.0483 139.199 23.4683 139.199 19.9524ZM151.268 19.8622C151.268 17.4489 149.408 15.6485 146.542 15.6485C143.654 15.6485 141.814 17.4489 141.814 19.8622C141.814 22.2568 143.654 24.0759 146.542 24.0759C149.408 24.0759 151.268 22.2568 151.268 19.8622Z" fill="white"/>
        <path fill-rule="evenodd" clip-rule="evenodd" d="M166.569 25.8693L159.181 17.4069V25.8693H156.698V14.0352H159.246L166.484 22.2328V14.0352H168.967V25.8693H166.569Z" fill="white"/>
    </g>
    <defs>
        <linearGradient id="paint0_linear_187_506" x1="38.2506" y1="35.0752" x2="52.1752" y2="57.9849" gradientUnits="userSpaceOnUse">
            <stop stop-color="#FF177B"/>
            <stop offset="1" stop-color="#FFEC73"/>
        </linearGradient>
        <linearGradient id="paint1_linear_187_506" x1="21.5275" y1="11.5088" x2="-2.76706" y2="69.3749" gradientUnits="userSpaceOnUse">
            <stop stop-color="#064AA2"/>
            <stop offset="1" stop-color="#63FFD4"/>
        </linearGradient>
        <linearGradient id="paint2_linear_187_506" x1="47.0785" y1="53.0178" x2="13.1445" y2="75.7747" gradientUnits="userSpaceOnUse">
            <stop stop-color="#FF4521"/>
            <stop offset="1" stop-color="#8A33DB"/>
        </linearGradient>
        <linearGradient id="paint3_linear_187_506" x1="12.5205" y1="25.5425" x2="23.1113" y2="56.4075" gradientUnits="userSpaceOnUse">
            <stop stop-color="#00A3B5"/>
            <stop offset="1" stop-color="#D6FFA1"/>
        </linearGradient>
        <clipPath id="clip0_187_506">
            <rect width="287" height="86" fill="white" transform="translate(0 0.110352)"/>
        </clipPath>
    </defs>
</svg>
