<svg width="125" height="125" viewBox="0 0 125 125" fill="none" xmlns="http://www.w3.org/2000/svg">
    <path fill-rule="evenodd" clip-rule="evenodd" d="M67.9001 1.57638C66.0596 0.776931 64.7175 1.69559 58.5478 7.89736C54.0806 12.3819 51.5537 15.2883 51.5651 15.9573C51.6228 17.5329 54.3327 17.7451 56.1865 15.7762C58.2256 13.5902 62.6325 8.89306 64.318 7.15862C68.742 2.47868 69.0281 2.05982 67.9001 1.57638ZM46.5199 21.8297C44.1092 22.2743 35.0698 32.4015 35.4336 34.2868C35.8929 36.7239 38.6297 35.3447 42.1407 30.9552C44.3045 28.2377 46.0062 26.3173 47.3795 24.8235C48.7529 23.3296 48.2116 21.5177 46.5199 21.8297ZM29.5827 41.772C27.6442 41.7838 22.946 47.6532 18.6879 55.4345C15.0009 62.1749 18.7115 62.7922 22.8559 56.1098C24.8565 52.8733 28.136 47.7943 30.155 44.8798C31.8287 42.3747 31.7074 41.7463 29.5827 41.772ZM66.2224 84.8003C65.3918 84.5671 64.6419 85.3766 61.5033 89.7381C60.0981 91.7056 58.8015 93.3276 58.6406 93.3166C58.2853 93.3618 51.045 90.894 49.6541 90.2964C48.441 89.7269 45.0037 93.5334 46.5996 94.5407C47.8475 95.3477 52.4428 96.9611 54.3657 97.2369C56.1277 97.5017 56.1433 97.2141 54.0489 100.305C51.5255 104.025 51.2652 104.52 51.4632 105.277C51.9879 107.173 54.2343 107.877 56.931 107.014C62.7979 105.159 67.5614 104.565 75.6465 104.701C80.2182 104.773 80.2064 104.003 75.5638 99.3067C71.4994 95.1957 69.3862 92.0467 68.244 88.3119C67.3334 85.2666 67.197 85.0274 66.2224 84.8003ZM39.7175 88.7936C39.3783 88.6528 37.6821 87.9487 35.969 87.2274C25.4776 82.7357 23.7665 86.3662 28.2725 88.8502C34.7641 92.4322 38.1194 93.0947 40.0918 91.1447C41.1286 90.1196 40.9894 89.2708 39.7175 88.7936ZM14.68 68.1726C10.8763 69.4842 11.5848 76.6749 16.0692 81.9694C20.4685 87.1778 24.8215 83.6905 21.2908 79.6641C18.7639 76.7542 17.6117 74.6278 16.7499 71.1261C15.9405 67.9807 15.7958 67.7838 14.68 68.1726Z" fill="url(#paint0_linear_149_67)"/>
    <defs>
        <linearGradient id="paint0_linear_149_67" x1="29.1611" y1="95.2629" x2="95.7686" y2="29.5829" gradientUnits="userSpaceOnUse">
            <stop stop-color="#73BF8E"/>
            <stop offset="1" stop-color="#024035"/>
        </linearGradient>
    </defs>
</svg>
