<svg width="125" height="125" viewBox="0 0 125 125" fill="none" xmlns="http://www.w3.org/2000/svg">
    <path fill-rule="evenodd" clip-rule="evenodd" d="M56.8467 1.57638C58.6872 0.776931 60.0293 1.69559 66.199 7.89736C70.6661 12.3819 73.193 15.2883 73.1816 15.9573C73.124 17.5329 70.4141 17.7451 68.5603 15.7762C66.5212 13.5902 62.1143 8.89306 60.4287 7.15862C56.0047 2.47868 55.7187 2.05982 56.8467 1.57638ZM78.2269 21.8297C80.6376 22.2743 89.6769 32.4015 89.3132 34.2868C88.8539 36.7239 86.1171 35.3447 82.6061 30.9552C80.4423 28.2377 78.7406 26.3173 77.3672 24.8235C75.9939 23.3296 76.5351 21.5177 78.2269 21.8297ZM95.1641 41.772C97.1026 41.7838 101.801 47.6532 106.059 55.4345C109.746 62.1749 106.035 62.7922 101.891 56.1098C99.8902 52.8733 96.6108 47.7943 94.5918 44.8798C92.918 42.3747 93.0394 41.7463 95.1641 41.772ZM58.5243 84.8003C59.355 84.5671 60.1049 85.3766 63.2435 89.7381C64.6486 91.7056 65.9453 93.3276 66.1062 93.3166C66.4615 93.3618 73.7018 90.894 75.0927 90.2964C76.3057 89.7269 79.7431 93.5334 78.1472 94.5407C76.8992 95.3477 72.3039 96.9611 70.3811 97.2369C68.6191 97.5017 68.6034 97.2141 70.6979 100.305C73.2213 104.025 73.4816 104.52 73.2836 105.277C72.7589 107.173 70.5125 107.877 67.8158 107.014C61.9488 105.159 57.1853 104.565 49.1002 104.701C44.5286 104.773 44.5404 104.003 49.183 99.3067C53.2474 95.1957 55.3605 92.0467 56.5027 88.3119C57.4133 85.2666 57.5498 85.0274 58.5243 84.8003ZM85.0292 88.7936C85.3685 88.6528 87.0646 87.9487 88.7778 87.2274C99.2691 82.7357 100.98 86.3662 96.4743 88.8502C89.9826 92.4322 86.6274 93.0947 84.655 91.1447C83.6182 90.1196 83.7573 89.2708 85.0292 88.7936ZM110.067 68.1726C113.871 69.4842 113.162 76.6749 108.678 81.9694C104.278 87.1778 99.9253 83.6905 103.456 79.6641C105.983 76.7542 107.135 74.6278 107.997 71.1261C108.806 67.9807 108.951 67.7838 110.067 68.1726Z" fill="url(#paint0_linear_149_65)"/>
    <defs>
        <linearGradient id="paint0_linear_149_65" x1="95.5856" y1="95.2629" x2="28.9782" y2="29.5829" gradientUnits="userSpaceOnUse">
            <stop stop-color="#73BF8E"/>
            <stop offset="1" stop-color="#024035"/>
        </linearGradient>
    </defs>
</svg>
