<svg width="334" height="380" viewBox="0 0 334 380" fill="none" xmlns="http://www.w3.org/2000/svg">
    <path d="M175.693 196.864C171.981 196.864 168.589 196.096 165.517 194.56C162.509 192.96 159.917 190.656 157.741 187.648C155.565 184.64 153.901 180.928 152.749 176.512C151.597 172.096 151.021 167.04 151.021 161.344C151.021 155.584 151.597 150.496 152.749 146.08C153.965 141.664 155.661 137.984 157.837 135.04C160.013 132.032 162.605 129.792 165.613 128.32C168.621 126.784 171.981 126.016 175.693 126.016C179.405 126.016 182.733 126.784 185.677 128.32C188.685 129.856 191.245 132.128 193.357 135.136C195.533 138.144 197.197 141.856 198.349 146.272C199.501 150.624 200.077 155.648 200.077 161.344C200.077 167.168 199.469 172.288 198.253 176.704C197.101 181.056 195.437 184.768 193.261 187.84C191.149 190.848 188.589 193.12 185.581 194.656C182.637 196.128 179.341 196.864 175.693 196.864ZM175.597 190.144C178.221 190.144 180.557 189.568 182.605 188.416C184.653 187.2 186.381 185.408 187.789 183.04C189.261 180.672 190.349 177.696 191.053 174.112C191.821 170.464 192.205 166.208 192.205 161.344C192.205 156.48 191.821 152.256 191.053 148.672C190.349 145.088 189.261 142.112 187.789 139.744C186.381 137.376 184.653 135.616 182.605 134.464C180.557 133.248 178.221 132.64 175.597 132.64C172.973 132.64 170.637 133.248 168.589 134.464C166.541 135.616 164.781 137.376 163.309 139.744C161.901 142.048 160.813 145.024 160.045 148.672C159.277 152.256 158.893 156.48 158.893 161.344C158.893 166.208 159.277 170.464 160.045 174.112C160.813 177.696 161.901 180.672 163.309 183.04C164.781 185.408 166.541 187.2 168.589 188.416C170.637 189.568 172.973 190.144 175.597 190.144ZM208.039 196V194.464C208.039 190.688 208.679 187.36 209.959 184.48C211.303 181.6 213.031 179.008 215.143 176.704C217.319 174.4 219.687 172.288 222.247 170.368C224.871 168.384 227.463 166.528 230.023 164.8C232.583 163.008 234.919 161.184 237.031 159.328C239.207 157.472 240.935 155.488 242.215 153.376C243.559 151.2 244.231 148.768 244.231 146.08C244.231 143.328 243.655 140.96 242.503 138.976C241.351 136.992 239.719 135.456 237.607 134.368C235.495 133.28 233.031 132.736 230.215 132.736C227.271 132.736 224.679 133.344 222.439 134.56C220.263 135.776 218.567 137.504 217.351 139.744C216.135 141.92 215.591 144.576 215.719 147.712H208.231C208.103 143.296 208.967 139.488 210.823 136.288C212.679 133.024 215.335 130.496 218.791 128.704C222.247 126.848 226.215 125.92 230.695 125.92C235.047 125.92 238.823 126.752 242.023 128.416C245.287 130.016 247.815 132.32 249.607 135.328C251.399 138.272 252.295 141.696 252.295 145.6C252.295 148.672 251.719 151.456 250.567 153.952C249.415 156.448 247.847 158.72 245.863 160.768C243.943 162.816 241.799 164.736 239.431 166.528C237.063 168.32 234.663 170.08 232.231 171.808C229.863 173.472 227.623 175.2 225.511 176.992C223.399 178.72 221.639 180.576 220.231 182.56C218.823 184.544 217.927 186.72 217.543 189.088H253.159V196H208.039Z" fill="#014035"/>
    <g filter="url(#filter0_ddi_0_1)">
        <path d="M201.279 101.619C192.312 98.9147 182.856 98.2399 173.595 99.6433C164.335 101.047 155.503 104.493 147.74 109.733C139.977 114.973 133.477 121.874 128.712 129.937C123.946 138 121.035 147.023 120.189 156.35C119.342 165.678 120.582 175.077 123.819 183.866C127.055 192.655 132.207 200.614 138.9 207.165C145.593 213.716 153.661 218.696 162.517 221.743C171.373 224.79 180.797 225.829 190.104 224.783L189.337 217.955C181.043 218.887 172.645 217.962 164.752 215.246C156.86 212.531 149.671 208.093 143.706 202.255C137.741 196.417 133.15 189.324 130.266 181.492C127.382 173.659 126.277 165.283 127.031 156.971C127.786 148.659 130.38 140.618 134.627 133.433C138.873 126.248 144.666 120.097 151.584 115.428C158.502 110.758 166.373 107.687 174.625 106.436C182.877 105.186 191.304 105.787 199.295 108.197L201.279 101.619Z" fill="url(#paint0_linear_0_1)"/>
    </g>
    <defs>
        <filter id="filter0_ddi_0_1" x="-0.00393486" y="0.458134" width="333.842" height="378.74" filterUnits="userSpaceOnUse" color-interpolation-filters="sRGB">
            <feFlood flood-opacity="0" result="BackgroundImageFix"/>
            <feColorMatrix in="SourceAlpha" type="matrix" values="0 0 0 0 0 0 0 0 0 0 0 0 0 0 0 0 0 0 127 0" result="hardAlpha"/>
            <feOffset dx="6.31234" dy="27.7743"/>
            <feGaussianBlur stdDeviation="63.1234"/>
            <feComposite in2="hardAlpha" operator="out"/>
            <feColorMatrix type="matrix" values="0 0 0 0 0 0 0 0 0 0 0 0 0 0 0 0 0 0 0.25 0"/>
            <feBlend mode="normal" in2="BackgroundImageFix" result="effect1_dropShadow_0_1"/>
            <feColorMatrix in="SourceAlpha" type="matrix" values="0 0 0 0 0 0 0 0 0 0 0 0 0 0 0 0 0 0 127 0" result="hardAlpha"/>
            <feOffset dy="5.04987"/>
            <feGaussianBlur stdDeviation="25.2494"/>
            <feComposite in2="hardAlpha" operator="out"/>
            <feColorMatrix type="matrix" values="0 0 0 0 0 0 0 0 0 0 0 0 0 0 0 0 0 0 0.16 0"/>
            <feBlend mode="normal" in2="effect1_dropShadow_0_1" result="effect2_dropShadow_0_1"/>
            <feBlend mode="normal" in="SourceGraphic" in2="effect2_dropShadow_0_1" result="shape"/>
            <feColorMatrix in="SourceAlpha" type="matrix" values="0 0 0 0 0 0 0 0 0 0 0 0 0 0 0 0 0 0 127 0" result="hardAlpha"/>
            <feOffset dx="1" dy="1"/>
            <feGaussianBlur stdDeviation="1.26247"/>
            <feComposite in2="hardAlpha" operator="arithmetic" k2="-1" k3="1"/>
            <feColorMatrix type="matrix" values="0 0 0 0 0 0 0 0 0 0 0 0 0 0 0 0 0 0 0.16 0"/>
            <feBlend mode="normal" in2="shape" result="effect3_innerShadow_0_1"/>
        </filter>
        <linearGradient id="paint0_linear_0_1" x1="168.386" y1="100.659" x2="197.722" y2="223.45" gradientUnits="userSpaceOnUse">
            <stop stop-color="#024035"/>
            <stop offset="1" stop-color="#73BF8E"/>
        </linearGradient>
    </defs>
</svg>
