<svg width="334" height="380" viewBox="0 0 334 380" fill="none" xmlns="http://www.w3.org/2000/svg">
    <path d="M175.474 200.864C171.762 200.864 168.37 200.096 165.298 198.56C162.29 196.96 159.698 194.656 157.522 191.648C155.346 188.64 153.682 184.928 152.53 180.512C151.378 176.096 150.802 171.04 150.802 165.344C150.802 159.584 151.378 154.496 152.53 150.08C153.746 145.664 155.442 141.984 157.618 139.04C159.794 136.032 162.386 133.792 165.394 132.32C168.402 130.784 171.762 130.016 175.474 130.016C179.186 130.016 182.514 130.784 185.458 132.32C188.466 133.856 191.026 136.128 193.138 139.136C195.314 142.144 196.978 145.856 198.13 150.272C199.282 154.624 199.858 159.648 199.858 165.344C199.858 171.168 199.25 176.288 198.034 180.704C196.882 185.056 195.218 188.768 193.042 191.84C190.93 194.848 188.37 197.12 185.362 198.656C182.418 200.128 179.122 200.864 175.474 200.864ZM175.378 194.144C178.002 194.144 180.338 193.568 182.386 192.416C184.434 191.2 186.162 189.408 187.57 187.04C189.042 184.672 190.13 181.696 190.834 178.112C191.602 174.464 191.986 170.208 191.986 165.344C191.986 160.48 191.602 156.256 190.834 152.672C190.13 149.088 189.042 146.112 187.57 143.744C186.162 141.376 184.434 139.616 182.386 138.464C180.338 137.248 178.002 136.64 175.378 136.64C172.754 136.64 170.418 137.248 168.37 138.464C166.322 139.616 164.562 141.376 163.09 143.744C161.682 146.048 160.594 149.024 159.826 152.672C159.058 156.256 158.674 160.48 158.674 165.344C158.674 170.208 159.058 174.464 159.826 178.112C160.594 181.696 161.682 184.672 163.09 187.04C164.562 189.408 166.322 191.2 168.37 192.416C170.418 193.568 172.754 194.144 175.378 194.144ZM230.284 200.864C225.612 200.864 221.548 199.936 218.092 198.08C214.7 196.224 212.076 193.632 210.22 190.304C208.364 186.976 207.468 183.136 207.532 178.784H215.116C215.052 181.792 215.628 184.448 216.844 186.752C218.06 189.056 219.82 190.848 222.124 192.128C224.492 193.408 227.212 194.048 230.284 194.048C233.42 194.048 236.14 193.504 238.444 192.416C240.748 191.264 242.54 189.664 243.82 187.616C245.1 185.504 245.74 183.072 245.74 180.32C245.74 178.144 245.388 176.256 244.684 174.656C244.044 172.992 243.084 171.648 241.804 170.624C240.588 169.536 239.116 168.736 237.388 168.224C235.66 167.648 233.74 167.36 231.628 167.36H224.524V161.216H231.34C234.284 161.216 236.716 160.672 238.636 159.584C240.62 158.496 242.124 157.024 243.148 155.168C244.172 153.248 244.684 151.104 244.684 148.736C244.684 146.176 244.076 144 242.86 142.208C241.708 140.416 240.076 139.072 237.964 138.176C235.916 137.216 233.452 136.736 230.572 136.736C227.436 136.736 224.748 137.376 222.508 138.656C220.268 139.872 218.572 141.6 217.42 143.84C216.268 146.08 215.66 148.704 215.596 151.712H208.108C208.044 147.36 208.94 143.552 210.796 140.288C212.652 136.96 215.308 134.4 218.764 132.608C222.22 130.816 226.22 129.92 230.764 129.92C234.156 129.92 237.196 130.368 239.884 131.264C242.572 132.096 244.876 133.312 246.796 134.912C248.716 136.448 250.188 138.336 251.212 140.576C252.236 142.752 252.748 145.216 252.748 147.968C252.748 150.592 252.268 152.992 251.308 155.168C250.412 157.28 249.1 159.072 247.372 160.544C245.708 162.016 243.756 163.104 241.516 163.808V164.288C244.14 164.864 246.348 165.952 248.14 167.552C249.996 169.088 251.404 170.976 252.364 173.216C253.324 175.456 253.804 178.016 253.804 180.896C253.804 184.864 252.812 188.352 250.828 191.36C248.908 194.304 246.188 196.64 242.668 198.368C239.148 200.032 235.02 200.864 230.284 200.864Z" fill="#014035"/>
    <g filter="url(#filter0_ddi_0_1)">
        <path d="M201.289 101.629C192.322 98.9245 182.865 98.2497 173.605 99.6531C164.345 101.057 155.513 104.503 147.75 109.743C139.987 114.982 133.487 121.884 128.721 129.947C123.956 138.01 121.045 147.032 120.198 156.36C119.352 165.688 120.592 175.087 123.828 183.876C127.065 192.665 132.216 200.623 138.91 207.175C145.603 213.726 153.67 218.706 162.527 221.753C171.383 224.8 180.807 225.838 190.114 224.792L189.346 217.965C181.052 218.897 172.654 217.972 164.762 215.256C156.87 212.541 149.68 208.103 143.716 202.265C137.751 196.426 133.16 189.334 130.276 181.502C127.392 173.669 126.287 165.293 127.041 156.981C127.795 148.668 130.39 140.628 134.636 133.443C138.883 126.257 144.675 120.107 151.594 115.438C158.512 110.768 166.382 107.697 174.635 106.446C182.887 105.196 191.314 105.797 199.305 108.207L201.289 101.629Z" fill="url(#paint0_linear_0_1)"/>
    </g>
    <defs>
        <filter id="filter0_ddi_0_1" x="0.00575447" y="0.467899" width="333.842" height="378.74" filterUnits="userSpaceOnUse" color-interpolation-filters="sRGB">
            <feFlood flood-opacity="0" result="BackgroundImageFix"/>
            <feColorMatrix in="SourceAlpha" type="matrix" values="0 0 0 0 0 0 0 0 0 0 0 0 0 0 0 0 0 0 127 0" result="hardAlpha"/>
            <feOffset dx="6.31234" dy="27.7743"/>
            <feGaussianBlur stdDeviation="63.1234"/>
            <feComposite in2="hardAlpha" operator="out"/>
            <feColorMatrix type="matrix" values="0 0 0 0 0 0 0 0 0 0 0 0 0 0 0 0 0 0 0.25 0"/>
            <feBlend mode="normal" in2="BackgroundImageFix" result="effect1_dropShadow_0_1"/>
            <feColorMatrix in="SourceAlpha" type="matrix" values="0 0 0 0 0 0 0 0 0 0 0 0 0 0 0 0 0 0 127 0" result="hardAlpha"/>
            <feOffset dy="5.04987"/>
            <feGaussianBlur stdDeviation="25.2494"/>
            <feComposite in2="hardAlpha" operator="out"/>
            <feColorMatrix type="matrix" values="0 0 0 0 0 0 0 0 0 0 0 0 0 0 0 0 0 0 0.16 0"/>
            <feBlend mode="normal" in2="effect1_dropShadow_0_1" result="effect2_dropShadow_0_1"/>
            <feBlend mode="normal" in="SourceGraphic" in2="effect2_dropShadow_0_1" result="shape"/>
            <feColorMatrix in="SourceAlpha" type="matrix" values="0 0 0 0 0 0 0 0 0 0 0 0 0 0 0 0 0 0 127 0" result="hardAlpha"/>
            <feOffset dx="1" dy="1"/>
            <feGaussianBlur stdDeviation="1.26247"/>
            <feComposite in2="hardAlpha" operator="arithmetic" k2="-1" k3="1"/>
            <feColorMatrix type="matrix" values="0 0 0 0 0 0 0 0 0 0 0 0 0 0 0 0 0 0 0.16 0"/>
            <feBlend mode="normal" in2="shape" result="effect3_innerShadow_0_1"/>
        </filter>
        <linearGradient id="paint0_linear_0_1" x1="168.396" y1="100.668" x2="197.732" y2="223.459" gradientUnits="userSpaceOnUse">
            <stop stop-color="#024035"/>
            <stop offset="1" stop-color="#73BF8E"/>
        </linearGradient>
    </defs>
</svg>
