<svg width="334" height="380" viewBox="0 0 334 380" fill="none" xmlns="http://www.w3.org/2000/svg">
    <path d="M175.474 200.864C171.762 200.864 168.37 200.096 165.298 198.56C162.29 196.96 159.698 194.656 157.522 191.648C155.346 188.64 153.682 184.928 152.53 180.512C151.378 176.096 150.802 171.04 150.802 165.344C150.802 159.584 151.378 154.496 152.53 150.08C153.746 145.664 155.442 141.984 157.618 139.04C159.794 136.032 162.386 133.792 165.394 132.32C168.402 130.784 171.762 130.016 175.474 130.016C179.186 130.016 182.514 130.784 185.458 132.32C188.466 133.856 191.026 136.128 193.138 139.136C195.314 142.144 196.978 145.856 198.13 150.272C199.282 154.624 199.858 159.648 199.858 165.344C199.858 171.168 199.25 176.288 198.034 180.704C196.882 185.056 195.218 188.768 193.042 191.84C190.93 194.848 188.37 197.12 185.362 198.656C182.418 200.128 179.122 200.864 175.474 200.864ZM175.378 194.144C178.002 194.144 180.338 193.568 182.386 192.416C184.434 191.2 186.162 189.408 187.57 187.04C189.042 184.672 190.13 181.696 190.834 178.112C191.602 174.464 191.986 170.208 191.986 165.344C191.986 160.48 191.602 156.256 190.834 152.672C190.13 149.088 189.042 146.112 187.57 143.744C186.162 141.376 184.434 139.616 182.386 138.464C180.338 137.248 178.002 136.64 175.378 136.64C172.754 136.64 170.418 137.248 168.37 138.464C166.322 139.616 164.562 141.376 163.09 143.744C161.682 146.048 160.594 149.024 159.826 152.672C159.058 156.256 158.674 160.48 158.674 165.344C158.674 170.208 159.058 174.464 159.826 178.112C160.594 181.696 161.682 184.672 163.09 187.04C164.562 189.408 166.322 191.2 168.37 192.416C170.418 193.568 172.754 194.144 175.378 194.144ZM223.084 200V148.064H206.764V142.112H209.356C213.964 142.112 217.356 141.088 219.532 139.04C221.708 136.928 222.956 134.176 223.276 130.784H230.86V200H223.084Z" fill="#014035"/>
    <g filter="url(#filter0_ddi_0_1)">
        <path d="M201.289 101.619C192.322 98.9147 182.865 98.2399 173.605 99.6433C164.345 101.047 155.513 104.493 147.75 109.733C139.987 114.973 133.487 121.874 128.721 129.937C123.956 138 121.045 147.023 120.198 156.35C119.352 165.678 120.592 175.077 123.828 183.866C127.065 192.655 132.216 200.614 138.91 207.165C145.603 213.716 153.67 218.696 162.527 221.743C171.383 224.79 180.807 225.829 190.114 224.783L189.346 217.955C181.052 218.887 172.654 217.962 164.762 215.246C156.87 212.531 149.68 208.093 143.716 202.255C137.751 196.417 133.16 189.324 130.276 181.492C127.392 173.659 126.287 165.283 127.041 156.971C127.795 148.659 130.39 140.618 134.636 133.433C138.883 126.248 144.675 120.097 151.594 115.428C158.512 110.758 166.382 107.687 174.635 106.436C182.887 105.186 191.314 105.787 199.305 108.197L201.289 101.619Z" fill="url(#paint0_linear_0_1)"/>
    </g>
    <defs>
        <filter id="filter0_ddi_0_1" x="0.00575447" y="0.458134" width="333.842" height="378.74" filterUnits="userSpaceOnUse" color-interpolation-filters="sRGB">
            <feFlood flood-opacity="0" result="BackgroundImageFix"/>
            <feColorMatrix in="SourceAlpha" type="matrix" values="0 0 0 0 0 0 0 0 0 0 0 0 0 0 0 0 0 0 127 0" result="hardAlpha"/>
            <feOffset dx="6.31234" dy="27.7743"/>
            <feGaussianBlur stdDeviation="63.1234"/>
            <feComposite in2="hardAlpha" operator="out"/>
            <feColorMatrix type="matrix" values="0 0 0 0 0 0 0 0 0 0 0 0 0 0 0 0 0 0 0.25 0"/>
            <feBlend mode="normal" in2="BackgroundImageFix" result="effect1_dropShadow_0_1"/>
            <feColorMatrix in="SourceAlpha" type="matrix" values="0 0 0 0 0 0 0 0 0 0 0 0 0 0 0 0 0 0 127 0" result="hardAlpha"/>
            <feOffset dy="5.04987"/>
            <feGaussianBlur stdDeviation="25.2494"/>
            <feComposite in2="hardAlpha" operator="out"/>
            <feColorMatrix type="matrix" values="0 0 0 0 0 0 0 0 0 0 0 0 0 0 0 0 0 0 0.16 0"/>
            <feBlend mode="normal" in2="effect1_dropShadow_0_1" result="effect2_dropShadow_0_1"/>
            <feBlend mode="normal" in="SourceGraphic" in2="effect2_dropShadow_0_1" result="shape"/>
            <feColorMatrix in="SourceAlpha" type="matrix" values="0 0 0 0 0 0 0 0 0 0 0 0 0 0 0 0 0 0 127 0" result="hardAlpha"/>
            <feOffset dx="1" dy="1"/>
            <feGaussianBlur stdDeviation="1.26247"/>
            <feComposite in2="hardAlpha" operator="arithmetic" k2="-1" k3="1"/>
            <feColorMatrix type="matrix" values="0 0 0 0 0 0 0 0 0 0 0 0 0 0 0 0 0 0 0.16 0"/>
            <feBlend mode="normal" in2="shape" result="effect3_innerShadow_0_1"/>
        </filter>
        <linearGradient id="paint0_linear_0_1" x1="168.396" y1="100.659" x2="197.732" y2="223.45" gradientUnits="userSpaceOnUse">
            <stop stop-color="#024035"/>
            <stop offset="1" stop-color="#73BF8E"/>
        </linearGradient>
    </defs>
</svg>
