<svg width="18" height="18" viewBox="0 0 18 18" fill="none" xmlns="http://www.w3.org/2000/svg">
    <path fill-rule="evenodd" clip-rule="evenodd" d="M4.35857 1.01172C3.47085 1.01172 2.61947 1.36428 1.99164 1.99187C1.3638 2.61946 1.01092 3.47071 1.01057 4.35843V13.2864C1.01057 14.1744 1.36331 15.026 1.99118 15.6538C2.61905 16.2817 3.47063 16.6344 4.35857 16.6344H13.2866C14.1743 16.6341 15.0255 16.2812 15.6531 15.6534C16.2807 15.0255 16.6333 14.1742 16.6333 13.2864V4.35843C16.6329 3.47093 16.2802 2.61988 15.6527 1.99233C15.0251 1.36477 14.1741 1.01206 13.2866 1.01172H4.35857ZM14.2496 4.36358C14.2496 4.61932 14.148 4.86459 13.9671 5.04543C13.7863 5.22627 13.541 5.32786 13.2853 5.32786C13.0295 5.32786 12.7843 5.22627 12.6034 5.04543C12.4226 4.86459 12.321 4.61932 12.321 4.36358C12.321 4.10783 12.4226 3.86256 12.6034 3.68172C12.7843 3.50088 13.0295 3.39929 13.2853 3.39929C13.541 3.39929 13.7863 3.50088 13.9671 3.68172C14.148 3.86256 14.2496 4.10783 14.2496 4.36358ZM8.82386 6.14815C8.1146 6.14815 7.43438 6.4299 6.93286 6.93143C6.43133 7.43295 6.14957 8.11317 6.14957 8.82243C6.14957 9.5317 6.43133 10.2119 6.93286 10.7134C7.43438 11.215 8.1146 11.4967 8.82386 11.4967C9.53312 11.4967 10.2133 11.215 10.7149 10.7134C11.2164 10.2119 11.4981 9.5317 11.4981 8.82243C11.4981 8.11317 11.2164 7.43295 10.7149 6.93143C10.2133 6.4299 9.53312 6.14815 8.82386 6.14815ZM4.86257 8.82243C4.86257 7.77218 5.27979 6.76493 6.02243 6.02229C6.76508 5.27965 7.77232 4.86243 8.82258 4.86243C9.87283 4.86243 10.8801 5.27965 11.6227 6.02229C12.3654 6.76493 12.7826 7.77218 12.7826 8.82243C12.7826 9.87269 12.3654 10.8799 11.6227 11.6226C10.8801 12.3652 9.87283 12.7824 8.82258 12.7824C7.77232 12.7824 6.76508 12.3652 6.02243 11.6226C5.27979 10.8799 4.86257 9.87269 4.86257 8.82243Z" fill="#014035"/>
</svg>
