<svg width="50" height="50" viewBox="0 0 50 50" fill="none" xmlns="http://www.w3.org/2000/svg">
    <rect y="50" width="50" height="50" rx="25" transform="rotate(-90 0 50)" fill="#73BF8E" fill-opacity="0.23"/>
    <path d="M26.4485 33.5091C26.8021 33.9334 27.4326 33.9907 27.8569 33.6372C28.2812 33.2836 28.3385 32.6531 27.985 32.2288L26.4485 33.5091ZM20.3114 24.5825L19.5431 23.9423C19.2341 24.3132 19.2341 24.8518 19.5431 25.2227L20.3114 24.5825ZM27.985 16.9362C28.3385 16.5119 28.2812 15.8814 27.8569 15.5278C27.4326 15.1742 26.8021 15.2316 26.4485 15.6558L27.985 16.9362ZM27.985 32.2288L21.0796 23.9423L19.5431 25.2227L26.4485 33.5091L27.985 32.2288ZM21.0796 25.2227L27.985 16.9362L26.4485 15.6558L19.5431 23.9423L21.0796 25.2227ZM25 7.25C34.8031 7.25 42.75 15.1969 42.75 25H44.75C44.75 14.0924 35.9076 5.25 25 5.25V7.25ZM42.75 25C42.75 34.8031 34.8031 42.75 25 42.75V44.75C35.9076 44.75 44.75 35.9076 44.75 25H42.75ZM25 42.75C15.1969 42.75 7.25 34.8031 7.25 25H5.25C5.25 35.9076 14.0924 44.75 25 44.75V42.75ZM7.25 25C7.25 15.1969 15.1969 7.25 25 7.25V5.25C14.0924 5.25 5.25 14.0924 5.25 25H7.25Z" fill="#00362B"/>
</svg>
