<svg width="18" height="18" viewBox="0 0 18 18" fill="none" xmlns="http://www.w3.org/2000/svg">
    <g clip-path="url(#clip0_268_1968)">
        <path fill-rule="evenodd" clip-rule="evenodd" d="M9 1.5C4.85775 1.5 1.5 4.85775 1.5 9C1.5 12.177 3.477 14.8905 6.26625 15.9833C6.201 15.39 6.14175 14.4803 6.2925 13.8323C6.429 13.2473 7.17225 10.1047 7.17225 10.1047C7.17225 10.1047 6.948 9.65475 6.948 8.991C6.948 7.94775 7.5525 7.17 8.3055 7.17C8.9445 7.17 9.2535 7.65 9.2535 8.226C9.2535 8.8695 8.844 9.831 8.6325 10.7235C8.4555 11.4698 9.0075 12.078 9.74325 12.078C11.076 12.078 12.1005 10.6725 12.1005 8.64375C12.1005 6.84825 10.8105 5.59275 8.96775 5.59275C6.83475 5.59275 5.5815 7.19325 5.5815 8.84775C5.5815 9.492 5.82975 10.1827 6.1395 10.5585C6.16608 10.5868 6.18488 10.6215 6.19408 10.6592C6.20328 10.6969 6.20256 10.7364 6.192 10.7738C6.135 11.0107 6.00825 11.52 5.9835 11.625C5.9505 11.7615 5.87475 11.7908 5.733 11.7248C4.7955 11.289 4.2105 9.9195 4.2105 8.81925C4.2105 6.453 5.92875 4.281 9.16575 4.281C11.7675 4.281 13.7895 6.135 13.7895 8.61225C13.7895 11.1975 12.1597 13.2772 9.897 13.2772C9.138 13.2772 8.42325 12.8828 8.17875 12.4155C8.17875 12.4155 7.80225 13.848 7.7115 14.199C7.542 14.85 7.08525 15.6675 6.77925 16.1655C7.48125 16.3823 8.22675 16.4993 8.99925 16.4993C13.143 16.5 16.5 13.1415 16.5 9C16.5 4.8585 13.1423 1.5 9 1.5Z" fill="#014035"/>
    </g>
    <defs>
        <clipPath id="clip0_268_1968">
            <rect width="18" height="18" fill="white"/>
        </clipPath>
    </defs>
</svg>
