<svg width="122" height="117" viewBox="0 0 122 117" fill="none" xmlns="http://www.w3.org/2000/svg">
    <g clip-path="url(#clip0_187_455)">
        <path d="M22.5306 52.1793V21.3457H54.8803C54.9197 22.0005 55.0181 22.5993 55.0181 23.2167C55.0181 32.1786 54.9787 41.1405 55.0574 50.1025C55.0574 51.7676 54.5655 52.2354 52.8142 52.2354C43.3887 52.1605 33.9632 52.198 24.5377 52.198C23.9474 52.198 23.3571 52.198 22.5306 52.198V52.1793ZM44.3135 31.4676C40.7913 31.4676 37.4265 31.4489 34.0813 31.5051C33.7861 31.5051 33.2548 32.0289 33.2548 32.3096C33.1958 35.4902 33.2155 38.6709 33.2155 41.9825C36.7574 41.9825 40.0042 42.0199 43.2313 41.9451C43.6052 41.9451 44.2545 41.3089 44.2545 40.9722C44.3332 37.9038 44.2939 34.8167 44.2939 31.4676H44.3135Z" fill="#73BF8E"/>
        <path d="M54.8803 93.6592H22.5897V62.9192C23.2587 62.8818 23.8884 62.807 24.5378 62.807C33.9632 62.807 43.3887 62.8444 52.7945 62.7695C54.5261 62.7695 55.0574 63.1812 55.0574 64.8837C54.9787 73.8457 55.0181 82.8076 55.0181 91.7695C55.0181 92.387 54.9394 92.9857 54.8803 93.6966V93.6592ZM33.2155 73.0786C33.2155 76.3153 33.1761 79.4586 33.2745 82.5831C33.2745 82.9199 34.1403 83.4624 34.6126 83.4811C37.3871 83.5747 40.1616 83.5747 42.9361 83.4811C43.4084 83.4811 44.2349 82.8824 44.2349 82.5644C44.3332 79.4399 44.2939 76.3153 44.2939 73.0973H33.1958L33.2155 73.0786Z" fill="#73BF8E"/>
        <path d="M66.2932 21.29H98.6232C98.6626 21.9262 98.7413 22.5249 98.7413 23.1236C98.7413 32.1417 98.7019 41.1784 98.7806 50.1965C98.7806 51.7868 98.269 52.2171 96.6358 52.1984C87.2103 52.1236 77.7848 52.1236 68.3593 52.1984C66.6474 52.1984 66.0768 51.8055 66.0964 50.1029C66.1948 41.141 66.1358 32.1791 66.1358 23.2171C66.1358 22.5997 66.2145 21.9823 66.2539 21.29H66.2932ZM76.9781 41.9829C80.4216 41.9829 83.7274 42.0204 87.0135 41.9268C87.3677 41.9268 87.9581 41.1223 87.9581 40.6733C88.0368 38.0352 88.0368 35.3784 87.9581 32.7404C87.9581 32.31 87.3284 31.5242 86.9545 31.5055C83.6684 31.412 80.3823 31.4494 76.9781 31.4494V41.9642V41.9829Z" fill="#73BF8E"/>
        <path d="M0.787109 0.596787C1.53485 0.559368 2.12518 0.503241 2.69582 0.503241C12.1213 0.503241 21.5468 0.540659 30.9723 0.46582C32.7039 0.46582 33.3335 0.896145 33.2155 2.58002C33.0777 4.65679 33.0974 6.75227 33.2155 8.82905C33.2942 10.251 32.7432 10.6813 31.2674 10.6626C25.3642 10.6065 19.461 10.7 13.5577 10.6065C11.8261 10.5878 11.2555 11.0555 11.2948 12.7394C11.3932 18.3523 11.2948 23.9652 11.3539 29.5968C11.3539 30.9626 10.98 31.5239 9.46484 31.4678C6.63129 31.3742 3.77807 31.449 0.806783 31.449V0.615501L0.787109 0.596787Z" fill="#014035"/>
        <path d="M120.386 31.4302C117.218 31.4302 114.168 31.4302 111.118 31.4302C109.603 31.4302 109.879 30.4011 109.879 29.5592C109.859 24.0024 109.78 18.4457 109.898 12.9076C109.938 11.0366 109.269 10.5689 107.399 10.6063C101.634 10.7186 95.8487 10.6063 90.0832 10.6812C88.4106 10.6999 87.8793 10.176 87.9777 8.62308C88.0958 6.49018 88.0564 4.33857 87.9777 2.18696C87.9384 1.00825 88.3122 0.484375 89.6503 0.484375C99.4103 0.521794 109.151 0.521794 118.911 0.484375C120.072 0.484375 120.564 0.783728 120.544 1.98115C120.505 11.4482 120.524 20.9153 120.505 30.3824C120.505 30.6257 120.426 30.8689 120.347 31.4115L120.386 31.4302Z" fill="#014035"/>
        <path d="M16.7848 114.445C12.0623 114.445 7.35934 114.408 2.63676 114.464C1.21999 114.482 0.609995 114.164 0.629672 112.686C0.688704 103.537 0.688704 94.3695 0.629672 85.2205C0.629672 83.8921 1.12161 83.4431 2.47935 83.4992C4.80129 83.5741 7.12323 83.5928 9.44516 83.4992C10.9997 83.4244 11.3539 84.0418 11.3342 85.3889C11.2752 90.8896 11.3145 96.3715 11.3145 101.872C11.3145 104.304 11.3145 104.323 13.971 104.323C19.6184 104.323 25.2658 104.398 30.8935 104.286C32.7826 104.248 33.3139 104.884 33.1958 106.568C33.0777 108.514 33.0581 110.497 33.1958 112.443C33.3336 114.202 32.5661 114.539 30.8935 114.501C26.1906 114.408 21.4681 114.464 16.7455 114.464L16.7848 114.445Z" fill="#014035"/>
        <path d="M104.035 114.446C99.3907 114.446 94.7468 114.389 90.1029 114.483C88.4106 114.52 87.899 113.978 87.9974 112.425C88.1155 110.535 88.1352 108.627 87.9974 106.756C87.8597 104.922 88.391 104.23 90.4964 104.286C96.0061 104.436 101.516 104.342 107.025 104.342C108.928 104.342 109.885 103.463 109.898 101.704C109.898 96.3346 109.957 90.9649 109.879 85.6139C109.859 84.0984 110.233 83.4436 111.965 83.5184C114.286 83.6494 116.608 83.5933 118.93 83.5184C120.111 83.4997 120.583 83.8739 120.583 85.0339C120.544 94.3139 120.544 103.594 120.583 112.874C120.583 114.146 120.032 114.464 118.793 114.464C113.873 114.427 108.974 114.464 104.054 114.464L104.035 114.446Z" fill="#014035"/>
        <path d="M76.9387 73.0591H98.5642C98.6429 73.6765 98.761 74.1442 98.761 74.6307C98.761 80.4307 98.7413 86.2307 98.8003 92.0494C98.8003 93.3591 98.4265 93.8455 97.0097 93.7894C94.1171 93.6958 91.2049 93.7707 88.0171 93.7707C88.0171 91.4132 88.0171 89.2991 88.0171 87.1662C88.0171 84.5967 86.6331 83.312 83.8652 83.312C81.681 83.312 79.4968 83.312 76.9978 83.312V73.0029L76.9387 73.0591Z" fill="#73BF8E"/>
        <path d="M76.7222 72.7224H65.9193C65.9193 69.4669 65.8997 66.4172 65.9587 63.3488C65.9587 63.0682 66.6081 62.563 66.9819 62.5443C70.091 62.4882 73.1803 62.5069 76.6435 62.5069C76.6435 66.0243 76.6435 69.4108 76.6435 72.7785L76.7222 72.7224Z" fill="#73BF8E"/>
        <path d="M66.0768 83.3867H76.4271V93.3216H66.0768V83.3867Z" fill="#73BF8E"/>
    </g>
    <defs>
        <clipPath id="clip0_187_455">
            <rect width="122" height="116" fill="white" transform="translate(0 0.110352)"/>
        </clipPath>
    </defs>
</svg>
