<svg width="50" height="50" viewBox="0 0 50 50" fill="none" xmlns="http://www.w3.org/2000/svg">
    <rect width="50" height="50" rx="25" transform="matrix(0 -1 -1 0 50 50)" fill="#73BF8E" fill-opacity="0.23"/>
    <path d="M23.5515 33.5091C23.1979 33.9334 22.5674 33.9907 22.1431 33.6372C21.7188 33.2836 21.6615 32.6531 22.015 32.2288L23.5515 33.5091ZM29.6886 24.5825L30.4569 23.9423C30.7659 24.3132 30.7659 24.8518 30.4569 25.2227L29.6886 24.5825ZM22.015 16.9362C21.6615 16.5119 21.7188 15.8814 22.1431 15.5278C22.5674 15.1742 23.1979 15.2316 23.5515 15.6558L22.015 16.9362ZM22.015 32.2288L28.9204 23.9423L30.4569 25.2227L23.5515 33.5091L22.015 32.2288ZM28.9204 25.2227L22.015 16.9362L23.5515 15.6558L30.4569 23.9423L28.9204 25.2227ZM25 7.25C15.1969 7.25 7.25 15.1969 7.25 25H5.25C5.25 14.0924 14.0924 5.25 25 5.25V7.25ZM7.25 25C7.25 34.8031 15.1969 42.75 25 42.75V44.75C14.0924 44.75 5.25 35.9076 5.25 25H7.25ZM25 42.75C34.8031 42.75 42.75 34.8031 42.75 25H44.75C44.75 35.9076 35.9076 44.75 25 44.75V42.75ZM42.75 25C42.75 15.1969 34.8031 7.25 25 7.25V5.25C35.9076 5.25 44.75 14.0924 44.75 25H42.75Z" fill="#00362B"/>
</svg>
