<svg width="129" height="24" viewBox="0 0 129 24" fill="none" xmlns="http://www.w3.org/2000/svg">
    <path d="M14.23 3.50965L15.99 7.02965C16.23 7.51965 16.87 7.98965 17.41 8.07965L20.6 8.60965C22.64 8.94965 23.12 10.4296 21.65 11.8896L19.17 14.3696C18.75 14.7896 18.52 15.5996 18.65 16.1796L19.36 19.2496C19.92 21.6796 18.63 22.6196 16.48 21.3496L13.49 19.5796C12.95 19.2596 12.06 19.2596 11.51 19.5796L8.52 21.3496C6.38 22.6196 5.08 21.6696 5.64 19.2496L6.35 16.1796C6.48 15.5996 6.25 14.7896 5.83 14.3696L3.35 11.8896C1.89 10.4296 2.36 8.94965 4.4 8.60965L7.59 8.07965C8.12 7.98965 8.76 7.51965 9 7.02965L10.76 3.50965C11.72 1.59965 13.28 1.59965 14.23 3.50965Z" fill="#FFEC73" stroke="#FFEC73" stroke-width="1.5" stroke-linecap="round" stroke-linejoin="round"/>
    <path d="M40.23 3.50965L41.99 7.02965C42.23 7.51965 42.87 7.98965 43.41 8.07965L46.6 8.60965C48.64 8.94965 49.12 10.4296 47.65 11.8896L45.17 14.3696C44.75 14.7896 44.52 15.5996 44.65 16.1796L45.36 19.2496C45.92 21.6796 44.63 22.6196 42.48 21.3496L39.49 19.5796C38.95 19.2596 38.06 19.2596 37.51 19.5796L34.52 21.3496C32.38 22.6196 31.08 21.6696 31.64 19.2496L32.35 16.1796C32.48 15.5996 32.25 14.7896 31.83 14.3696L29.35 11.8896C27.89 10.4296 28.36 8.94965 30.4 8.60965L33.59 8.07965C34.12 7.98965 34.76 7.51965 35 7.02965L36.76 3.50965C37.72 1.59965 39.28 1.59965 40.23 3.50965Z" fill="#FFEC73" stroke="#FFEC73" stroke-width="1.5" stroke-linecap="round" stroke-linejoin="round"/>
    <path d="M66.23 3.50965L67.99 7.02965C68.23 7.51965 68.87 7.98965 69.41 8.07965L72.6 8.60965C74.64 8.94965 75.12 10.4296 73.65 11.8896L71.17 14.3696C70.75 14.7896 70.52 15.5996 70.65 16.1796L71.36 19.2496C71.92 21.6796 70.63 22.6196 68.48 21.3496L65.49 19.5796C64.95 19.2596 64.06 19.2596 63.51 19.5796L60.52 21.3496C58.38 22.6196 57.08 21.6696 57.64 19.2496L58.35 16.1796C58.48 15.5996 58.25 14.7896 57.83 14.3696L55.35 11.8896C53.89 10.4296 54.36 8.94965 56.4 8.60965L59.59 8.07965C60.12 7.98965 60.76 7.51965 61 7.02965L62.76 3.50965C63.72 1.59965 65.28 1.59965 66.23 3.50965Z" fill="#FFEC73" stroke="#FFEC73" stroke-width="1.5" stroke-linecap="round" stroke-linejoin="round"/>
    <path d="M92.23 3.50965L93.99 7.02965C94.23 7.51965 94.87 7.98965 95.41 8.07965L98.6 8.60965C100.64 8.94965 101.12 10.4296 99.65 11.8896L97.17 14.3696C96.75 14.7896 96.52 15.5996 96.65 16.1796L97.36 19.2496C97.92 21.6796 96.63 22.6196 94.48 21.3496L91.49 19.5796C90.95 19.2596 90.06 19.2596 89.51 19.5796L86.52 21.3496C84.38 22.6196 83.08 21.6696 83.64 19.2496L84.35 16.1796C84.48 15.5996 84.25 14.7896 83.83 14.3696L81.35 11.8896C79.89 10.4296 80.36 8.94965 82.4 8.60965L85.59 8.07965C86.12 7.98965 86.76 7.51965 87 7.02965L88.76 3.50965C89.72 1.59965 91.28 1.59965 92.23 3.50965Z" fill="#FFEC73" stroke="#FFEC73" stroke-width="1.5" stroke-linecap="round" stroke-linejoin="round"/>
    <path d="M118.23 3.50965L119.99 7.02965C120.23 7.51965 120.87 7.98965 121.41 8.07965L124.6 8.60965C126.64 8.94965 127.12 10.4296 125.65 11.8896L123.17 14.3696C122.75 14.7896 122.52 15.5996 122.65 16.1796L123.36 19.2496C123.92 21.6796 122.63 22.6196 120.48 21.3496L117.49 19.5796C116.95 19.2596 116.06 19.2596 115.51 19.5796L112.52 21.3496C110.38 22.6196 109.08 21.6696 109.64 19.2496L110.35 16.1796C110.48 15.5996 110.25 14.7896 109.83 14.3696L107.35 11.8896C105.89 10.4296 106.36 8.94965 108.4 8.60965L111.59 8.07965C112.12 7.98965 112.76 7.51965 113 7.02965L114.76 3.50965C115.72 1.59965 117.28 1.59965 118.23 3.50965Z" fill="url(#paint0_angular_197_2670)" stroke="#FFEC73" stroke-width="1.5" stroke-linecap="round" stroke-linejoin="round"/>
    <defs>
        <radialGradient id="paint0_angular_197_2670" cx="0" cy="0" r="1" gradientUnits="userSpaceOnUse" gradientTransform="translate(116.5 -7) rotate(89.9959) scale(28.9154 29.1544)">
            <stop stop-color="#FFEC73"/>
            <stop offset="1" stop-color="white"/>
        </radialGradient>
    </defs>
</svg>
