<svg width="18" height="18" viewBox="0 0 18 18" fill="none" xmlns="http://www.w3.org/2000/svg">
    <path d="M12.45 4.365C11.9373 3.77972 11.6548 3.02807 11.655 2.25H9.3375V11.55C9.31963 12.0533 9.10716 12.53 8.74483 12.8797C8.3825 13.2294 7.89859 13.4249 7.395 13.425C6.33 13.425 5.445 12.555 5.445 11.475C5.445 10.185 6.69 9.2175 7.9725 9.615V7.245C5.385 6.9 3.12 8.91 3.12 11.475C3.12 13.9725 5.19 15.75 7.3875 15.75C9.7425 15.75 11.655 13.8375 11.655 11.475V6.7575C12.5948 7.43239 13.723 7.79449 14.88 7.7925V5.475C14.88 5.475 13.47 5.5425 12.45 4.365Z" fill="#014035"/>
</svg>
